<?xml version="1.0" standalone="no"?>
<!DOCTYPE svg PUBLIC "-//W3C//DTD SVG 20010904//EN"
 "http://www.w3.org/TR/2001/REC-SVG-20010904/DTD/svg10.dtd">
<svg version="1.0" xmlns="http://www.w3.org/2000/svg"
 width="1000.000000pt" height="1000.000000pt" viewBox="0 0 1000.000000 1000.000000"
 preserveAspectRatio="xMidYMid meet">
 <!-- Add a background rect with rounded corners -->
 <rect x="0" y="0" width="1000" height="1000" rx="50" ry="50" fill="white"/>

<g transform="translate(0.000000,1000.000000) scale(0.100000,-0.100000)"
fill="brown" stroke="none">
<path d="M0 5000 l0 -5000 5000 0 5000 0 0 5000 0 5000 -5000 0 -5000 0 0
-5000z m5367 4460 c661 -85 1209 -338 1693 -783 l126 -115 59 10 c186 29 461
214 616 414 23 30 44 53 46 50 6 -6 -59 -171 -102 -256 -59 -118 -159 -280
-252 -408 -448 -615 -1255 -1297 -1941 -1641 l-103 -52 -45 32 c-67 46 -201
106 -280 126 -96 23 -287 23 -374 -1 -94 -26 -175 -62 -255 -114 l-70 -45 -95
49 c-300 155 -656 391 -950 628 -340 274 -715 649 -932 932 -190 249 -343 516
-408 711 l-19 58 27 -35 c54 -71 199 -214 274 -270 138 -104 263 -164 378
-180 l54 -7 106 98 c351 328 771 570 1202 695 209 60 484 108 733 128 96 7
361 -5 512 -24z m-2907 -1745 c99 -132 194 -246 314 -378 l89 -99 -33 -71
c-53 -117 -101 -246 -118 -322 -24 -107 -21 -327 6 -430 82 -306 332 -560 660
-668 132 -44 258 -67 368 -67 96 0 91 7 73 -100 -6 -36 -14 -130 -17 -209 l-7
-144 -487 -281 c-267 -155 -483 -284 -480 -287 4 -4 178 -103 387 -219 209
-117 410 -232 446 -256 162 -107 351 -354 511 -670 202 -397 363 -839 599
-1644 222 -756 223 -760 233 -749 2 2 45 146 96 319 320 1095 438 1449 627
1870 176 395 385 707 559 838 55 41 509 303 831 478 29 16 52 33 50 37 -1 4
-218 132 -482 285 l-480 277 -7 130 c-4 72 -12 166 -18 209 -16 125 -22 116
68 116 169 0 361 48 524 132 303 154 492 416 529 731 23 193 -23 402 -136 627
l-33 65 100 110 c107 119 251 294 342 418 32 43 59 77 61 75 2 -2 33 -63 70
-136 158 -315 250 -602 307 -952 18 -115 20 -194 28 -995 5 -478 13 -935 19
-1015 69 -906 267 -1677 617 -2399 52 -107 93 -195 92 -196 -2 -1 -234 184
-516 412 -283 228 -515 413 -516 411 -2 -1 -166 -268 -366 -593 -199 -324
-364 -591 -365 -593 -1 -1 -174 160 -384 358 -210 198 -385 360 -389 360 -4
-1 -281 -448 -617 -995 -335 -547 -612 -994 -615 -994 -3 -1 -280 446 -616
992 -337 545 -616 992 -621 992 -6 0 -158 -139 -339 -310 -181 -170 -352 -331
-380 -357 l-51 -48 -363 591 c-200 325 -367 592 -370 594 -3 2 -233 -181 -512
-406 -279 -225 -509 -409 -512 -409 -2 0 31 73 74 163 368 766 571 1560 630
2472 6 88 13 509 16 935 2 426 9 827 15 890 28 303 105 601 234 906 62 145
157 327 165 317 4 -4 45 -57 90 -118z m1170 -1087 c168 -109 307 -192 458
-270 72 -38 132 -72 132 -74 0 -10 -108 -56 -187 -81 -78 -23 -105 -27 -233
-27 -165 -1 -229 12 -348 70 -143 70 -239 191 -264 331 -10 59 -9 83 4 150 9
44 25 101 36 127 l21 47 133 -99 c73 -55 185 -133 248 -174z m3155 179 c31
-95 35 -213 12 -290 -45 -145 -194 -271 -382 -322 -140 -38 -339 -30 -483 19
-66 23 -152 62 -152 70 0 3 57 35 128 72 240 126 560 329 753 478 46 35 87 62
91 60 4 -3 19 -42 33 -87z m-1649 -455 c127 -44 290 -182 380 -321 131 -205
182 -418 191 -808 5 -211 7 -235 27 -269 18 -31 54 -56 233 -158 117 -67 212
-123 212 -126 0 -3 -52 -39 -116 -80 -129 -84 -297 -236 -400 -364 -225 -279
-384 -618 -579 -1236 -42 -135 -80 -249 -84 -253 -5 -5 -11 6 -15 25 -13 60
-201 620 -249 743 -112 284 -269 563 -419 743 -122 145 -288 290 -440 382 -31
19 -57 37 -57 40 0 3 91 57 201 120 208 119 254 156 263 212 3 18 7 134 10
258 4 248 18 353 68 510 34 109 101 241 161 318 93 122 240 233 351 268 61 19
201 17 262 -4z"/>
</g>
</svg>
